<?xml version="1.0" encoding="UTF-8"?>
<svg id="Layer_2" data-name="Layer 2" xmlns="http://www.w3.org/2000/svg" xmlns:xlink="http://www.w3.org/1999/xlink" viewBox="0 0 1667.01 423.22">
  <defs>
    <style>
      .cls-1 {
        clip-path: url(#clippath-21);
      }

      .cls-2 {
        clip-path: url(#clippath-6);
      }

      .cls-3 {
        clip-path: url(#clippath-7);
      }

      .cls-4 {
        clip-path: url(#clippath-17);
      }

      .cls-5 {
        clip-path: url(#clippath-15);
      }

      .cls-6 {
        clip-path: url(#clippath-18);
      }

      .cls-7 {
        clip-path: url(#clippath-4);
      }

      .cls-8 {
        fill: url(#linear-gradient-2);
      }

      .cls-9 {
        clip-path: url(#clippath-22);
      }

      .cls-10 {
        clip-path: url(#clippath-23);
      }

      .cls-11 {
        clip-path: url(#clippath-9);
      }

      .cls-12 {
        clip-path: url(#clippath-10);
      }

      .cls-13 {
        clip-path: url(#clippath-11);
      }

      .cls-14 {
        fill: none;
      }

      .cls-15 {
        clip-path: url(#clippath-1);
      }

      .cls-16 {
        clip-path: url(#clippath-5);
      }

      .cls-17 {
        clip-path: url(#clippath-20);
      }

      .cls-18 {
        clip-path: url(#clippath-8);
      }

      .cls-19 {
        clip-path: url(#clippath-3);
      }

      .cls-20 {
        clip-path: url(#clippath-12);
      }

      .cls-21 {
        clip-path: url(#clippath-14);
      }

      .cls-22 {
        clip-path: url(#clippath-19);
      }

      .cls-23 {
        fill: #6d6e71;
      }

      .cls-24 {
        clip-path: url(#clippath-16);
      }

      .cls-25 {
        clip-path: url(#clippath-2);
      }

      .cls-26 {
        clip-path: url(#clippath-13);
      }

      .cls-27 {
        fill: url(#linear-gradient);
      }

      .cls-28 {
        clip-path: url(#clippath-24);
      }

      .cls-29 {
        clip-path: url(#clippath);
      }
    </style>
    <clipPath id="clippath">
      <path class="cls-14" d="M669.83,63.03c-3.09,3.18-4.63,7.14-4.63,11.86v131.93c0,4.72,1.65,8.67,4.94,11.86,3.28,3.19,7.08,4.78,11.4,4.78,4.73,0,8.63-1.59,11.72-4.78,3.09-3.19,4.63-7.14,4.63-11.86V74.9c0-4.72-1.6-8.69-4.77-11.86-3.19-3.19-7.05-4.78-11.57-4.78s-8.63,1.6-11.7,4.78M40.69,190.02c-5.76-4.41-8.63-10.83-8.63-19.27,0-7.39,3.02-13.1,9.09-17.11,6.06-4.01,13.82-6.01,23.26-6.01,6.99,0,13.26.47,18.81,1.39,5.54.91,11.71,2.2,18.5,3.84v34.22c-1.65,1.24-5.35,3.14-11.1,5.7-5.75,2.58-13.97,3.86-24.65,3.86s-19.53-2.21-25.27-6.63M42.08,59.02c-8.74,1.95-15.36,4.06-19.87,6.32-4.12,1.85-6.94,4.16-8.49,6.94-1.54,2.78-2.31,5.49-2.31,8.16,0,4.73,2.06,8.53,6.17,11.41,4.12,2.88,9.55,3.19,16.34.93,4.32-1.64,9.4-3.19,15.25-4.62,5.85-1.45,11.98-2.16,18.34-2.16,12.13,0,20.86,2.36,26.2,7.08,5.35,4.74,8.02,12.33,8.02,22.82v10.16c-7.19-1.64-13.72-2.92-19.58-3.85-5.85-.93-12.38-1.38-19.57-1.38-10.89,0-20.24,1.38-28.04,4.15-7.81,2.78-14.29,6.53-19.42,11.25-5.14,4.72-8.93,10.18-11.4,16.34-2.47,6.17-3.71,12.63-3.71,19.42,0,7.61,1.33,14.63,4.01,21.11,2.67,6.48,6.63,12.13,11.86,16.96,5.24,4.83,11.82,8.57,19.73,11.25,7.91,2.68,17.11,4,27.59,4,8.02,0,15.46-.61,22.35-1.85,6.89-1.23,13.04-2.78,18.49-4.62,5.45-1.85,10.12-3.75,14.03-5.71,3.9-1.95,6.98-3.64,9.24-5.08,2.27-1.65,3.8-3.34,4.62-5.09.83-1.74,1.24-4.05,1.24-6.94v-80.13c0-20.75-5.7-35.91-17.11-45.47-11.41-9.56-26.97-14.33-46.7-14.33-9.45,0-18.54.97-27.27,2.92M368.05,190.02c-5.76-4.41-8.64-10.83-8.64-19.27,0-7.39,3.04-13.1,9.1-17.11,6.06-4.01,13.82-6.01,23.27-6.01,6.98,0,13.26.47,18.81,1.39,5.54.91,11.7,2.2,18.49,3.84v34.22c-1.65,1.24-5.35,3.14-11.09,5.7-5.76,2.58-13.97,3.86-24.65,3.86s-19.53-2.21-25.28-6.63M369.43,59.02c-8.74,1.95-15.36,4.06-19.88,6.32-4.11,1.85-6.93,4.16-8.47,6.94-1.55,2.78-2.32,5.49-2.32,8.16,0,4.73,2.06,8.53,6.16,11.41,4.12,2.88,9.56,3.19,16.34.93,4.32-1.64,9.4-3.19,15.25-4.62,5.86-1.45,11.98-2.16,18.36-2.16,12.12,0,20.85,2.36,26.19,7.08,5.35,4.74,8.02,12.33,8.02,22.82v10.16c-7.19-1.64-13.72-2.92-19.58-3.85-5.85-.93-12.37-1.38-19.56-1.38-10.89,0-20.24,1.38-28.06,4.15-7.8,2.78-14.27,6.53-19.41,11.25-5.13,4.72-8.93,10.18-11.41,16.34-2.46,6.17-3.69,12.63-3.69,19.42,0,7.61,1.33,14.63,4,21.11,2.66,6.48,6.61,12.13,11.86,16.96,5.24,4.83,11.82,8.57,19.73,11.25,7.91,2.68,17.11,4,27.59,4,8.01,0,15.46-.61,22.35-1.85,6.88-1.23,13.04-2.78,18.5-4.62,5.44-1.85,10.11-3.75,14.02-5.71,3.91-1.95,6.99-3.64,9.25-5.08,2.26-1.65,3.8-3.34,4.62-5.09.83-1.74,1.24-4.05,1.24-6.94v-80.13c0-20.75-5.71-35.91-17.11-45.47-11.41-9.56-26.97-14.33-46.7-14.33-9.46,0-18.55.97-27.28,2.92M540.82,57.78c-6.87,1.14-12.99,2.58-18.34,4.32-5.34,1.75-9.96,3.59-13.86,5.54-3.91,1.95-6.99,3.75-9.25,5.4-2.27,1.64-3.91,3.34-4.94,5.08-1.02,1.75-1.54,4.27-1.54,7.55v121.14c0,4.72,1.65,8.67,4.94,11.86,3.28,3.19,7.08,4.78,11.4,4.78,4.73,0,8.63-1.59,11.72-4.78,3.09-3.19,4.62-7.14,4.62-11.86v-110.65c3.5-2.27,8.58-4.27,15.25-6.02,6.68-1.74,13.83-2.62,21.43-2.62,4.73,0,9.24.67,13.56,2.01,4.32,1.33,8.12,3.45,11.41,6.31,3.28,2.88,5.91,6.53,7.87,10.94,1.95,4.43,2.92,9.72,2.92,15.88v84.15c0,4.72,1.65,8.67,4.93,11.86,3.28,3.19,7.09,4.78,11.41,4.78,4.72,0,8.62-1.59,11.71-4.78,3.09-3.19,4.63-7.14,4.63-11.86v-85.7c0-20.95-5.65-37.04-16.96-48.23-11.3-11.21-28.15-16.8-50.55-16.8-8.01,0-15.47.56-22.35,1.69M193.58,157.81c-.2-2.46-.36-5.3-.46-8.47-.11-3.19-.16-6.48-.16-9.87s.05-6.68.16-9.86c.1-3.19.26-5.81.46-7.86.62-11.3,3.81-19.83,9.56-25.58,5.75-5.76,14.48-8.64,26.19-8.64,8.02,0,15.52,1.08,22.5,3.24,6.98,2.15,12.13,4.26,15.41,6.31v85.69c-1.65,1.24-3.75,2.46-6.32,3.7-2.57,1.24-5.49,2.42-8.79,3.55-3.28,1.13-6.67,2.06-10.17,2.77-3.49.72-6.88,1.08-10.17,1.08-23.62,0-36.37-12.02-38.22-36.06M272.02,6.93c-3.19,3.19-4.77,7.15-4.77,11.88v46.22c-5.13-2.25-11.3-4.32-18.5-6.17-7.19-1.84-14.48-2.77-21.88-2.77-19.93,0-35.5,5.49-46.7,16.49-11.19,11-17.62,26.14-19.26,45.46-.2,2.87-.36,6.22-.47,10.02-.1,3.8-.16,7.75-.16,11.86s.06,8.12.16,12.03c.11,3.9.26,7.2.47,9.87.82,9.45,2.97,18.08,6.48,25.89,3.5,7.8,8.27,14.48,14.33,20.03,6.06,5.54,13.2,9.87,21.43,12.95,8.21,3.09,17.56,4.63,28.05,4.63,7.39,0,14.48-.72,21.26-2.15,6.78-1.45,12.9-3.19,18.34-5.24,5.45-2.06,10.17-4.16,14.18-6.31,4-2.16,7.03-3.96,9.09-5.4,2.46-1.65,4.06-3.38,4.77-5.24.73-1.84,1.09-4.22,1.09-7.09V18.81c0-4.73-1.55-8.69-4.63-11.88-3.08-3.18-6.98-4.77-11.72-4.77s-8.36,1.6-11.55,4.77M668.29,5.23c-3.49,3.5-5.24,7.81-5.24,12.95s1.75,9.56,5.24,13.25c3.5,3.71,7.91,5.56,13.25,5.56s9.46-1.85,12.95-5.56c3.5-3.69,5.23-8.11,5.23-13.25s-1.74-9.44-5.23-12.95c-3.5-3.49-7.8-5.23-12.95-5.23s-9.75,1.74-13.25,5.23"/>
    </clipPath>
    <linearGradient id="linear-gradient" x1="347.32" y1="759.88" x2="354.38" y2="759.88" gradientTransform="translate(-35269.09 -77038.66) scale(101.53)" gradientUnits="userSpaceOnUse">
      <stop offset="0" stop-color="#0f80a2"/>
      <stop offset=".18" stop-color="#3b6fb7"/>
      <stop offset=".72" stop-color="#863995"/>
      <stop offset="1" stop-color="#c73e4f"/>
    </linearGradient>
    <clipPath id="clippath-1">
      <path class="cls-14" d="M1646.35,66.27l-45.62,60.41-46.23-60.72c-2.05-2.67-4.63-4-7.71-4-2.47,0-4.53.88-6.17,2.62-1.64,1.74-2.46,3.76-2.46,6.01,0,2.46.72,4.52,2.15,6.16l49.32,64.12-52.7,67.81c-1.45,1.65-2.16,3.69-2.16,6.17,0,2.25.87,4.31,2.61,6.17,1.74,1.84,3.86,2.77,6.33,2.77,3.08,0,5.64-1.24,7.71-3.7l49.62-65.04,49.32,64.73c1.85,2.67,4.52,4.01,8.02,4.01,2.67,0,4.78-.93,6.32-2.77,1.53-1.86,2.31-3.91,2.31-6.17s-.71-4.22-2.16-5.86l-52.71-67.81,49.01-63.81c1.44-1.65,2.15-3.8,2.15-6.48,0-2.26-.87-4.32-2.61-6.16-1.74-1.86-3.86-2.78-6.32-2.78-3.07,0-5.75,1.44-8.02,4.32M774.78,64.11c-8.11,2.88-15.15,6.99-21.1,12.33-5.96,5.35-10.69,11.72-14.18,19.11-3.5,7.39-5.45,15.62-5.85,24.65-.21,3.09-.37,6.53-.47,10.33-.11,3.81-.16,7.61-.16,11.41s.05,7.56.16,11.25c.1,3.7.25,7.09.47,10.18.61,8.63,2.61,16.75,6,24.35,3.4,7.6,8.02,14.17,13.87,19.73,5.85,5.54,12.85,9.92,20.96,13.1,8.12,3.19,17.11,4.77,26.98,4.77,10.47,0,19.51-1.74,27.12-5.24,7.61-3.49,13.92-7.71,18.96-12.63,5.04-4.93,8.79-9.97,11.25-15.1,2.46-5.14,3.7-9.25,3.7-12.34,0-2.87-.77-5.13-2.32-6.78-1.54-1.64-3.44-2.46-5.7-2.46s-4.27.61-6.02,1.85c-1.74,1.24-3.13,3.39-4.15,6.48-3.7,9.86-9.66,17.15-17.88,21.88-8.21,4.72-16.65,7.09-25.27,7.09-14.6,0-26.21-4.16-34.84-12.48-8.63-8.33-13.45-18.96-14.48-31.9-.2-2.68-.36-5.97-.45-9.87-.11-3.91-.16-7.86-.16-11.87s.05-7.91.16-11.71c.09-3.8.25-7.14.45-10.02.2-6.36,1.6-12.17,4.16-17.41,2.57-5.24,6.02-9.76,10.33-13.56,4.32-3.81,9.41-6.79,15.26-8.94,5.86-2.16,12.38-3.24,19.58-3.24,8.62,0,17,2.37,25.12,7.09,8.11,4.72,13.92,11.92,17.41,21.58,1.02,3.09,2.32,5.24,3.86,6.48,1.54,1.23,3.45,1.85,5.7,1.85,2.46,0,4.52-.83,6.17-2.46,1.65-1.65,2.46-4.01,2.46-7.09s-1.18-7.19-3.55-12.33c-2.37-5.14-6.01-10.07-10.95-14.8-4.93-4.72-11.19-8.84-18.79-12.33-7.61-3.5-16.65-5.24-27.12-5.24-9.66,0-18.55,1.44-26.67,4.32M918.12,195.88c-8.72-8.11-13.71-18.85-14.94-32.2-.2-2.68-.36-5.91-.47-9.72-.1-3.8-.16-7.7-.16-11.7s.06-7.92.16-11.72c.11-3.79.26-7.14.47-10.01.41-6.37,1.84-12.18,4.32-17.42,2.46-5.23,5.81-9.81,10.01-13.72,4.21-3.9,9.2-6.94,14.95-9.09,5.75-2.16,12.23-3.24,19.42-3.24s13.4,1.08,19.26,3.24c5.85,2.15,10.85,5.19,14.95,9.09,4.11,3.91,7.4,8.48,9.87,13.72,2.46,5.24,3.9,11.05,4.31,17.42.21,2.87.37,6.21.47,10.01.1,3.81.16,7.71.16,11.72s-.06,7.9-.16,11.7c-.1,3.81-.25,7.04-.47,9.72-1.23,13.35-6.16,24.09-14.8,32.2-8.62,8.11-19.82,12.18-33.59,12.18s-25.01-4.06-33.76-12.18M925.99,64.26c-8.02,2.98-14.95,7.14-20.81,12.48-5.85,5.35-10.58,11.72-14.17,19.11-3.59,7.4-5.59,15.62-6.01,24.67-.41,6.16-.61,13.3-.61,21.41s.2,15.25.61,21.43c.42,8.83,2.42,17.06,6.01,24.65,3.59,7.61,8.32,14.18,14.17,19.73,5.86,5.54,12.8,9.87,20.81,12.95,8.01,3.09,16.64,4.63,25.89,4.63s17.83-1.54,25.74-4.63c7.91-3.07,14.8-7.4,20.64-12.95,5.85-5.54,10.59-12.12,14.18-19.73,3.59-7.6,5.6-15.83,6.02-24.65.4-6.17.61-13.3.61-21.43s-.21-15.25-.61-21.41c-.42-9.05-2.42-17.27-6.02-24.67-3.59-7.39-8.33-13.76-14.18-19.11-5.85-5.34-12.73-9.5-20.64-12.48-7.91-2.98-16.49-4.47-25.74-4.47s-17.88,1.49-25.89,4.47M1098.29,61.49c-6.58,1.12-12.48,2.51-17.73,4.16-5.23,1.65-9.75,3.44-13.56,5.4-3.8,1.95-6.73,3.75-8.79,5.39-1.64,1.03-2.78,2.21-3.39,3.55-.62,1.33-.93,3.23-.93,5.7v128.53c0,2.68.87,4.89,2.63,6.64,1.74,1.74,3.85,2.61,6.31,2.61,2.67,0,4.83-.87,6.48-2.61,1.64-1.75,2.46-3.96,2.46-6.64v-125.13c4.52-2.89,10.99-5.61,19.41-8.16,8.43-2.57,17.87-3.86,28.36-3.86,6.38,0,12.38.88,18.04,2.62,5.65,1.75,10.54,4.47,14.64,8.17,4.11,3.69,7.4,8.43,9.86,14.17,2.46,5.76,3.7,12.54,3.7,20.35v91.85c0,2.68.88,4.89,2.62,6.64,1.75,1.74,3.86,2.61,6.31,2.61,2.88,0,5.09-.87,6.64-2.61,1.54-1.75,2.31-3.96,2.31-6.64v-92.46c0-19.73-5.3-34.99-15.88-45.77-10.58-10.8-26.46-16.19-47.63-16.19-8.01,0-15.3.57-21.88,1.7M1267.21,61.49c-6.57,1.12-12.47,2.51-17.72,4.16-5.23,1.65-9.75,3.44-13.57,5.4-3.79,1.95-6.72,3.75-8.77,5.39-1.65,1.03-2.78,2.21-3.39,3.55-.62,1.33-.93,3.23-.93,5.7v128.53c0,2.68.88,4.89,2.62,6.64,1.75,1.74,3.86,2.61,6.32,2.61,2.67,0,4.84-.87,6.47-2.61,1.65-1.75,2.47-3.96,2.47-6.64v-125.13c4.52-2.89,10.99-5.61,19.41-8.16,8.43-2.57,17.87-3.86,28.36-3.86,6.36,0,12.38.88,18.04,2.62,5.64,1.75,10.53,4.47,14.63,8.17,4.12,3.69,7.4,8.43,9.87,14.17,2.46,5.76,3.69,12.54,3.69,20.35v91.85c0,2.68.88,4.89,2.63,6.64,1.75,1.74,3.85,2.61,6.32,2.61,2.87,0,5.08-.87,6.62-2.61,1.54-1.75,2.32-3.96,2.32-6.64v-92.46c0-19.73-5.3-34.99-15.88-45.77-10.59-10.8-26.46-16.19-47.62-16.19-8.01,0-15.3.57-21.89,1.7M1414.87,92.01c8.22-9.97,20.66-14.96,37.29-14.96,7.4,0,14.13,1.24,20.2,3.69,6.05,2.47,11.14,5.96,15.25,10.49,4.1,4.52,7.2,9.96,9.24,16.34,2.06,6.37,2.78,13.56,2.15,21.58-.2,2.87-1.74,4.31-4.62,4.31h-91.24c-.4-17.66,3.5-31.49,11.72-41.45M1426.89,64.11c-7.8,2.88-14.64,6.99-20.5,12.33-5.85,5.35-10.57,11.86-14.17,19.58-3.6,7.71-5.7,16.49-6.32,26.35-.41,4.73-.66,10.49-.76,17.26-.11,6.79.04,12.95.46,18.5.61,10.07,2.47,19.22,5.55,27.43,3.08,8.22,7.5,15.26,13.25,21.12,5.76,5.85,12.75,10.42,20.96,13.71,8.22,3.29,17.78,4.94,28.67,4.94,10.28,0,19.63-.93,28.04-2.78,8.43-1.85,15-4.21,19.73-7.09,2.06-1.24,3.43-2.56,4.15-4,.73-1.43,1.08-2.88,1.08-4.32,0-2.67-1.23-4.99-3.69-6.94-2.46-1.95-5.86-2.1-10.18-.47-15.2,5.55-28.36,8.33-39.45,8.33-15.21,0-27.43-4.42-36.67-13.26-9.24-8.83-13.88-21.47-13.88-37.91v-6.17h95.86c6.17,0,10.69-1.49,13.57-4.46,2.88-2.99,4.32-6.94,4.32-11.87v-10.18c0-9.24-1.5-17.82-4.48-25.74-2.98-7.9-7.25-14.74-12.78-20.49-5.55-5.76-12.28-10.23-20.2-13.41-7.9-3.19-16.9-4.78-26.96-4.78-9.25,0-17.78,1.44-25.59,4.32"/>
    </clipPath>
    <linearGradient id="linear-gradient-2" x1="353.38" y1="762" x2="360.44" y2="762" gradientTransform="translate(-45904.58 -100431.84) scale(131.99)" gradientUnits="userSpaceOnUse">
      <stop offset="0" stop-color="#2b5f90"/>
      <stop offset="1" stop-color="#009ad7"/>
    </linearGradient>
    <clipPath id="clippath-2">
      <path class="cls-23" d="M220.64,324.44l-26.27,32.77-26.16-32.77c-.9-1.12-2.1-1.68-3.6-1.68-1.28,0-2.38.45-3.32,1.34-.93.9-1.4,1.95-1.4,3.15l.28,1.63.85,1.51,25.7,31.43c.9,1.12,1.63,2.09,2.19,2.91.57.83.85,2.03.85,3.6v29.19c0,1.27.45,2.38,1.35,3.31.9.93,1.98,1.4,3.26,1.4,1.35,0,2.44-.47,3.31-1.4.86-.93,1.29-2.04,1.29-3.31v-29.19c0-1.57.29-2.75.85-3.54.56-.78,1.28-1.74,2.19-2.86l25.82-31.65c.74-.83,1.12-1.84,1.12-3.04,0-1.27-.47-2.36-1.41-3.26-.94-.9-2.03-1.35-3.31-1.35-1.42,0-2.62.6-3.59,1.8"/>
    </clipPath>
    <clipPath id="clippath-3">
      <path class="cls-23" d="M245.65,390.21c-2.83-2.69-4.43-6.25-4.81-10.66-.06-.97-.13-2.09-.17-3.36-.04-1.28-.05-2.59-.05-3.93s.01-2.68.05-3.99c.04-1.31.11-2.45.17-3.43.3-4.19,1.84-7.63,4.65-10.33,2.8-2.69,6.54-4.04,11.24-4.04s8.45,1.35,11.24,4.04,4.35,6.14,4.64,10.33c.08.98.12,2.12.12,3.43v7.92c0,1.27-.04,2.39-.12,3.36-.36,4.42-1.97,7.97-4.82,10.66-2.83,2.7-6.52,4.04-11.06,4.04s-8.25-1.35-11.08-4.04M247.11,343.57c-2.97,1.09-5.57,2.6-7.82,4.55-2.24,1.94-4.03,4.28-5.33,7.01-1.32,2.73-2.08,5.75-2.31,9.04-.07,1.12-.13,2.38-.17,3.76-.03,1.39-.06,2.79-.06,4.21s.03,2.82.06,4.21c.04,1.39.1,2.64.17,3.76.23,3.29,1,6.32,2.31,9.09,1.3,2.77,3.09,5.17,5.33,7.19,2.25,2.02,4.86,3.6,7.82,4.72,2.96,1.12,6.17,1.68,9.63,1.68s6.67-.56,9.67-1.68c3-1.12,5.61-2.7,7.82-4.72,2.22-2.02,3.98-4.42,5.3-7.19,1.31-2.77,2.08-5.8,2.31-9.09.15-2.25.22-4.89.22-7.92s-.07-5.71-.22-8.03c-.22-3.29-1-6.3-2.31-9.04-1.32-2.73-3.08-5.07-5.3-7.01-2.21-1.95-4.82-3.46-7.82-4.55-2.99-1.08-6.22-1.63-9.67-1.63s-6.67.55-9.63,1.63"/>
    </clipPath>
    <clipPath id="clippath-4">
      <path class="cls-23" d="M340.27,344.13c-.88.94-1.31,2.04-1.31,3.31v42.55c-1.65,1.04-3.73,2-6.26,2.86-2.54.86-5.6,1.29-9.18,1.29-4.7,0-8.36-1.25-11.01-3.76-2.65-2.51-3.97-5.97-3.97-10.39v-32.56c0-1.27-.46-2.37-1.37-3.31-.91-.93-2.01-1.4-3.29-1.4s-2.38.47-3.25,1.4c-.87.94-1.3,2.04-1.3,3.31v32.45c0,3.67.57,6.92,1.75,9.76,1.16,2.85,2.81,5.24,4.94,7.19,2.15,1.95,4.7,3.43,7.66,4.44,2.97,1.01,6.25,1.51,9.85,1.51,2.92,0,5.58-.24,7.98-.72,2.4-.5,4.56-1.07,6.47-1.75,1.91-.67,3.56-1.41,4.95-2.19,1.39-.79,2.5-1.48,3.32-2.08,1.28-.82,1.91-2.06,1.91-3.7v-44.91c0-1.27-.46-2.37-1.37-3.31-.9-.93-2-1.4-3.29-1.4s-2.36.47-3.23,1.4"/>
    </clipPath>
    <clipPath id="clippath-5">
      <path class="cls-23" d="M372.52,346.72c-3.15,3.18-4.72,7.54-4.72,13.07v37.83c0,1.28.45,2.36,1.35,3.25.89.9,1.97,1.35,3.25,1.35s2.36-.45,3.27-1.35c.89-.9,1.33-1.97,1.33-3.24v-36.75c0-3.44.74-5.96,2.2-7.56,1.45-1.61,3.76-2.45,6.9-2.52,1.95,0,3.64.15,5.05.45,1.42.3,2.69.45,3.82.45,1.57,0,2.71-.47,3.41-1.42.71-.94,1.07-1.86,1.07-2.78,0-2.27-1.19-3.71-3.59-4.31-1.04-.39-2.45-.69-4.21-.91-1.75-.23-3.6-.34-5.55-.34-5.91,0-10.43,1.59-13.58,4.77"/>
    </clipPath>
    <clipPath id="clippath-6">
      <path class="cls-23" d="M459.46,324.49c-3.86,1.61-7.22,3.82-10.1,6.62-2.88,2.81-5.22,6.12-7.02,9.94-1.79,3.81-2.85,7.93-3.14,12.35-.45,5.99-.45,12.05,0,18.19.29,4.42,1.32,8.53,3.09,12.35,1.77,3.81,4.08,7.13,6.97,9.93,2.89,2.81,6.28,5.02,10.19,6.62,3.89,1.61,8.08,2.41,12.59,2.41s8.73-.74,12.48-2.24c3.75-1.49,6.95-3.53,9.62-6.11,2.66-2.57,4.73-5.56,6.19-8.96,1.46-3.39,2.19-6.95,2.19-10.68v-7.4c0-2.09-.66-3.86-1.99-5.32-1.32-1.45-3.27-2.18-5.85-2.18h-17.42c-1.27,0-2.37.42-3.31,1.28-.94.85-1.4,1.91-1.4,3.16s.46,2.31,1.4,3.15c.94.86,2.04,1.28,3.31,1.28h16.06v6.96c0,2.62-.51,5.05-1.52,7.29-1.01,2.25-2.45,4.18-4.33,5.79-1.86,1.61-4.11,2.85-6.74,3.76-2.61.9-5.5,1.35-8.64,1.35s-6.3-.57-9.04-1.74c-2.73-1.16-5.14-2.76-7.23-4.77-2.1-2.02-3.78-4.44-5.05-7.23-1.28-2.81-2.06-5.85-2.36-9.15-.45-5.62-.45-11.38,0-17.29.29-3.29,1.08-6.34,2.36-9.15,1.28-2.81,2.94-5.22,5-7.23,2.05-2.02,4.47-3.62,7.23-4.78,2.77-1.15,5.8-1.73,9.09-1.73,4.65,0,8.67,1.14,12.07,3.42,3.41,2.28,6.08,5.37,8.03,9.26.36.67.9,1.25,1.62,1.74.71.49,1.52.74,2.42.74,1.27,0,2.35-.43,3.25-1.3.9-.86,1.35-1.92,1.35-3.2,0-.9-.15-1.65-.44-2.25-2.63-5.38-6.41-9.61-11.34-12.68-4.94-3.07-10.63-4.61-17.06-4.61-4.49,0-8.66.81-12.52,2.42"/>
    </clipPath>
    <clipPath id="clippath-7">
      <path class="cls-23" d="M524.3,346.72c-3.15,3.18-4.72,7.54-4.72,13.07v37.83c0,1.28.44,2.36,1.35,3.25.9.9,1.98,1.35,3.25,1.35s2.36-.45,3.26-1.35c.9-.9,1.34-1.97,1.34-3.24v-36.75c0-3.44.74-5.96,2.19-7.56,1.46-1.61,3.76-2.45,6.9-2.52,1.96,0,3.64.15,5.05.45,1.42.3,2.7.45,3.82.45,1.57,0,2.71-.47,3.42-1.42.71-.94,1.07-1.86,1.07-2.78,0-2.27-1.19-3.71-3.59-4.31-1.05-.39-2.45-.69-4.21-.91-1.76-.23-3.6-.34-5.56-.34-5.91,0-10.43,1.59-13.57,4.77"/>
    </clipPath>
    <clipPath id="clippath-8">
      <path class="cls-23" d="M574,390.21c-2.83-2.69-4.44-6.25-4.8-10.66-.08-.97-.14-2.09-.17-3.36-.05-1.28-.06-2.59-.06-3.93s0-2.68.06-3.99c.03-1.31.09-2.45.17-3.43.29-4.19,1.84-7.63,4.64-10.33,2.79-2.69,6.55-4.04,11.24-4.04s8.45,1.35,11.24,4.04c2.79,2.69,4.35,6.14,4.64,10.33.07.98.12,2.12.12,3.43v7.92c0,1.27-.05,2.39-.12,3.36-.37,4.42-1.97,7.97-4.81,10.66-2.84,2.7-6.53,4.04-11.08,4.04s-8.24-1.35-11.08-4.04M575.46,343.57c-2.96,1.09-5.57,2.6-7.82,4.55-2.25,1.94-4.03,4.28-5.34,7.01-1.31,2.73-2.08,5.75-2.31,9.04-.08,1.12-.13,2.38-.17,3.76-.04,1.39-.06,2.79-.06,4.21s.02,2.82.06,4.21c.04,1.39.09,2.64.17,3.76.22,3.29,1,6.32,2.31,9.09,1.31,2.77,3.09,5.17,5.34,7.19,2.25,2.02,4.87,3.6,7.82,4.72,2.96,1.12,6.17,1.68,9.62,1.68s6.68-.56,9.67-1.68c3-1.12,5.61-2.7,7.82-4.72,2.22-2.02,3.98-4.42,5.29-7.19,1.31-2.77,2.08-5.8,2.31-9.09.15-2.25.22-4.89.22-7.92s-.08-5.71-.22-8.03c-.23-3.29-1-6.3-2.31-9.04-1.31-2.73-3.07-5.07-5.29-7.01-2.21-1.95-4.82-3.46-7.82-4.55-2.99-1.08-6.22-1.63-9.67-1.63s-6.66.55-9.62,1.63"/>
    </clipPath>
    <clipPath id="clippath-9">
      <path class="cls-23" d="M697.74,343.46c-.83.64-1.35,1.51-1.58,2.64l-12.23,47.03-.56.56-.56-.56-11.34-43.89c-.6-2.17-1.61-3.83-3.03-5-1.42-1.16-3.11-1.74-5.05-1.74s-3.55.57-5.05,1.74c-1.49,1.16-2.5,2.79-3.03,4.89l-11.34,44-.56.56-.56-.56-12.69-47.38c-.3-1.04-.82-1.85-1.56-2.41-.76-.56-1.62-.84-2.59-.84-1.56,0-2.76.65-3.58,1.96-.83,1.32-1.02,2.83-.56,4.54l13.02,47.15c.6,2.4,1.66,4.16,3.2,5.28,1.53,1.13,3.27,1.69,5.22,1.69s3.62-.58,5.05-1.75c1.42-1.16,2.43-2.94,3.03-5.33l11.45-42.88.56-.45.56.45,11.11,42.99c.6,2.4,1.65,4.16,3.15,5.28,1.5,1.13,3.22,1.69,5.17,1.69s3.65-.56,5.11-1.69c1.46-1.12,2.52-2.88,3.19-5.28l13.14-47.15c.44-1.65.27-3.14-.51-4.49-.79-1.35-2.01-2.02-3.65-2.02-1.13,0-2.1.32-2.92.95"/>
    </clipPath>
    <clipPath id="clippath-10">
      <path class="cls-23" d="M719.81,332.18c-.87.9-1.3,1.98-1.3,3.26v48.83c0,2.61.34,5.07,1.02,7.35.68,2.29,1.74,4.25,3.18,5.9,1.44,1.65,3.25,2.94,5.44,3.87,2.18.94,4.77,1.4,7.76,1.4,2.17,0,4.26-.16,6.28-.5,2.02-.34,3.78-.8,5.29-1.4,2.47-.83,3.7-2.29,3.7-4.37,0-1.42-.5-2.59-1.51-3.48-1.02-.9-2.45-1.12-4.33-.67-1.33.38-2.76.81-4.26,1.29-1.49.48-3.06.73-4.71.73-3.07,0-5.28-.91-6.62-2.75-1.35-1.84-2.02-4.18-2.02-7.02v-31.66h16.95c1.12,0,2.12-.39,2.97-1.18.86-.79,1.29-1.78,1.29-2.97s-.43-2.19-1.29-2.98c-.86-.79-1.85-1.17-2.97-1.17h-16.95v-9.2c0-1.28-.46-2.36-1.37-3.26-.9-.9-2.01-1.35-3.29-1.35s-2.37.44-3.24,1.35"/>
    </clipPath>
    <clipPath id="clippath-11">
      <path class="cls-23" d="M766.28,323.37c-.87.93-1.3,2.04-1.3,3.31v70.84c0,1.34.43,2.47,1.3,3.36.88.9,1.95,1.35,3.25,1.35s2.48-.45,3.35-1.35c.86-.9,1.3-2.03,1.3-3.36v-38.29c1.72-2.39,4.07-4.42,7.05-6.11,2.98-1.68,6.15-2.53,9.51-2.53,4.47,0,7.9,1.33,10.28,3.99,2.39,2.66,3.58,6.34,3.58,11.06v31.88c0,1.34.43,2.47,1.3,3.36.87.9,1.95,1.35,3.24,1.35s2.39-.45,3.29-1.35c.91-.9,1.37-2.03,1.37-3.36v-32.67c0-3.74-.55-7.05-1.63-9.93-1.09-2.88-2.58-5.28-4.49-7.19-1.91-1.91-4.23-3.35-6.96-4.33-2.73-.97-5.7-1.46-8.92-1.46-3.6,0-6.94.73-10.05,2.19-3.11,1.47-5.64,3.2-7.58,5.22v-22.68c0-1.27-.46-2.38-1.36-3.31-.91-.93-2.01-1.41-3.29-1.41s-2.37.48-3.25,1.41"/>
    </clipPath>
    <clipPath id="clippath-12">
      <path class="cls-23" d="M831.88,388.7c-.9.94-1.35,2.04-1.35,3.32v6.06c0,1.28.46,2.38,1.35,3.31.89.94,1.98,1.4,3.25,1.4,1.35,0,2.45-.46,3.31-1.4.86-.93,1.29-2.03,1.29-3.31v-6.06c0-1.28-.45-2.38-1.35-3.32-.89-.93-1.98-1.4-3.25-1.4s-2.36.46-3.25,1.4"/>
    </clipPath>
    <clipPath id="clippath-13">
      <path class="cls-23" d="M915.29,392.29c-2.77-1.16-5.19-2.76-7.25-4.77-2.05-2.02-3.74-4.44-5.05-7.23-1.31-2.81-2.12-5.85-2.42-9.15-.44-5.77-.44-11.57,0-17.41.3-3.29,1.11-6.32,2.42-9.09,1.31-2.77,2.99-5.17,5.05-7.19,2.06-2.02,4.48-3.62,7.25-4.78,2.77-1.15,5.76-1.73,8.97-1.73s6.24.58,9.04,1.73c2.81,1.16,5.26,2.76,7.36,4.78,2.08,2.02,3.79,4.42,5.1,7.19,1.31,2.76,2.11,5.8,2.41,9.09.6,5.84.6,11.64,0,17.41-.3,3.29-1.08,6.34-2.35,9.15-1.28,2.8-2.97,5.22-5.05,7.23-2.1,2.02-4.55,3.62-7.35,4.77-2.8,1.16-5.86,1.74-9.16,1.74s-6.2-.57-8.97-1.74M911.75,324.49c-3.86,1.61-7.24,3.82-10.16,6.62-2.92,2.81-5.29,6.12-7.07,9.94-1.79,3.81-2.85,7.93-3.14,12.35-.46,5.99-.46,12.05,0,18.19.29,4.42,1.35,8.53,3.14,12.35,1.79,3.81,4.16,7.13,7.07,9.93,2.92,2.81,6.3,5.02,10.16,6.62,3.86,1.61,8.03,2.41,12.51,2.41s8.7-.8,12.63-2.41c3.93-1.61,7.37-3.81,10.33-6.62,2.97-2.8,5.33-6.12,7.13-9.93,1.79-3.81,2.84-7.93,3.15-12.35.44-6.14.44-12.2,0-18.19-.31-4.34-1.35-8.42-3.15-12.23-1.79-3.82-4.16-7.15-7.13-10-2.96-2.84-6.39-5.06-10.33-6.67-3.93-1.61-8.14-2.42-12.63-2.42s-8.66.81-12.51,2.42"/>
    </clipPath>
    <clipPath id="clippath-14">
      <path class="cls-23" d="M1015.72,344.13c-.88.94-1.3,2.04-1.3,3.31v42.55c-1.64,1.04-3.73,2-6.27,2.86s-5.59,1.29-9.18,1.29c-4.69,0-8.36-1.25-11.01-3.76-2.65-2.51-3.97-5.97-3.97-10.39v-32.56c0-1.27-.46-2.37-1.37-3.31-.9-.93-2.01-1.4-3.29-1.4s-2.38.47-3.25,1.4c-.87.94-1.3,2.04-1.3,3.31v32.45c0,3.67.57,6.92,1.74,9.76,1.17,2.85,2.81,5.24,4.96,7.19,2.13,1.95,4.68,3.43,7.65,4.44,2.97,1.01,6.24,1.51,9.84,1.51,2.92,0,5.59-.24,7.99-.72,2.4-.5,4.56-1.07,6.47-1.75,1.91-.67,3.56-1.41,4.95-2.19,1.4-.79,2.5-1.48,3.32-2.08,1.27-.82,1.91-2.06,1.91-3.7v-44.91c0-1.27-.46-2.37-1.37-3.31-.9-.93-2.01-1.4-3.29-1.4s-2.36.47-3.23,1.4"/>
    </clipPath>
    <clipPath id="clippath-15">
      <path class="cls-23" d="M1047.98,346.72c-3.15,3.18-4.73,7.54-4.73,13.07v37.83c0,1.28.45,2.36,1.35,3.25.9.9,1.98,1.35,3.25,1.35s2.36-.45,3.26-1.35c.9-.9,1.34-1.97,1.34-3.24v-36.75c0-3.44.74-5.96,2.19-7.56,1.46-1.61,3.76-2.45,6.91-2.52,1.94,0,3.63.15,5.05.45,1.42.3,2.69.45,3.81.45,1.58,0,2.71-.47,3.42-1.42.71-.94,1.07-1.86,1.07-2.78,0-2.27-1.2-3.71-3.6-4.31-1.05-.39-2.45-.69-4.21-.91-1.76-.23-3.61-.34-5.55-.34-5.92,0-10.44,1.59-13.58,4.77"/>
    </clipPath>
    <clipPath id="clippath-16">
      <path class="cls-23" d="M1127.23,331.96h20.67c5.68,0,9.86,1.44,12.51,4.32,2.65,2.89,3.98,6.72,3.98,11.51s-1.31,8.41-3.93,11.34c-2.63,2.92-7,4.38-13.13,4.38h-20.11v-31.55ZM1125.66,323.08c-2.47,0-4.36.74-5.66,2.19-1.31,1.46-1.96,3.24-1.96,5.33v66.91c0,1.27.44,2.38,1.35,3.31.9.93,1.98,1.4,3.25,1.4s2.36-.47,3.26-1.4c.9-.93,1.34-2.04,1.34-3.31v-25.15h20.21c3.82,0,7.33-.54,10.55-1.63,3.22-1.09,6.01-2.69,8.36-4.82,2.36-2.14,4.19-4.72,5.5-7.75,1.31-3.04,1.97-6.53,1.97-10.49s-.68-7.37-2.03-10.45c-1.35-3.06-3.18-5.64-5.5-7.75-2.32-2.09-5.03-3.69-8.14-4.77-3.11-1.09-6.38-1.63-9.82-1.63h-22.68Z"/>
    </clipPath>
    <clipPath id="clippath-17">
      <path class="cls-23" d="M1193.36,346.72c-3.15,3.18-4.72,7.54-4.72,13.07v37.83c0,1.28.44,2.36,1.35,3.25.9.9,1.97,1.35,3.25,1.35s2.36-.45,3.27-1.35c.89-.9,1.33-1.97,1.33-3.24v-36.75c0-3.44.74-5.96,2.19-7.56,1.46-1.61,3.76-2.45,6.91-2.52,1.94,0,3.63.15,5.05.45,1.42.3,2.69.45,3.81.45,1.58,0,2.71-.47,3.42-1.42.71-.94,1.07-1.86,1.07-2.78,0-2.27-1.2-3.71-3.59-4.31-1.04-.39-2.45-.69-4.21-.91-1.76-.23-3.61-.34-5.55-.34-5.91,0-10.43,1.59-13.58,4.77"/>
    </clipPath>
    <clipPath id="clippath-18">
      <path class="cls-23" d="M1233.62,344.13c-.87.94-1.3,2.04-1.3,3.31v50.07c0,1.34.46,2.47,1.35,3.36.92.9,1.98,1.35,3.19,1.35,1.36,0,2.49-.45,3.36-1.35.87-.9,1.3-2.03,1.3-3.36v-50.07c0-1.27-.46-2.37-1.37-3.31-.9-.93-2-1.4-3.29-1.4s-2.37.47-3.24,1.4M1232.87,324.04c-1.04,1.09-1.57,2.41-1.57,3.98s.53,2.83,1.57,3.99c1.04,1.16,2.36,1.74,3.93,1.74s2.9-.58,3.99-1.74c1.08-1.16,1.63-2.49,1.63-3.99s-.55-2.9-1.63-3.98c-1.09-1.09-2.41-1.63-3.99-1.63s-2.88.55-3.93,1.63"/>
    </clipPath>
    <clipPath id="clippath-19">
      <path class="cls-23" d="M1274.38,390.21c-2.83-2.69-4.44-6.25-4.8-10.66-.08-.97-.14-2.09-.17-3.36-.04-1.28-.06-2.59-.06-3.93s.01-2.68.06-3.99c.03-1.31.09-2.45.17-3.43.29-4.19,1.84-7.63,4.64-10.33,2.79-2.69,6.55-4.04,11.24-4.04s8.45,1.35,11.24,4.04c2.79,2.69,4.35,6.14,4.64,10.33.08.98.12,2.12.12,3.43v7.92c0,1.27-.04,2.39-.12,3.36-.36,4.42-1.97,7.97-4.81,10.66-2.84,2.7-6.53,4.04-11.07,4.04s-8.24-1.35-11.08-4.04M1275.85,343.57c-2.97,1.09-5.58,2.6-7.83,4.55-2.24,1.94-4.03,4.28-5.33,7.01-1.32,2.73-2.08,5.75-2.31,9.04-.08,1.12-.13,2.38-.17,3.76-.04,1.39-.06,2.79-.06,4.21s.02,2.82.06,4.21c.04,1.39.09,2.64.17,3.76.23,3.29,1,6.32,2.31,9.09,1.3,2.77,3.09,5.17,5.33,7.19,2.25,2.02,4.87,3.6,7.83,4.72,2.95,1.12,6.16,1.68,9.62,1.68s6.67-.56,9.67-1.68c3.01-1.12,5.61-2.7,7.82-4.72,2.22-2.02,3.98-4.42,5.29-7.19,1.32-2.77,2.08-5.8,2.31-9.09.15-2.25.22-4.89.22-7.92s-.08-5.71-.22-8.03c-.23-3.29-1-6.3-2.31-9.04-1.31-2.73-3.07-5.07-5.29-7.01-2.21-1.95-4.81-3.46-7.82-4.55-2.99-1.08-6.22-1.63-9.67-1.63s-6.67.55-9.62,1.63"/>
    </clipPath>
    <clipPath id="clippath-20">
      <path class="cls-23" d="M1332.9,346.72c-3.15,3.18-4.72,7.54-4.72,13.07v37.83c0,1.28.44,2.36,1.35,3.25.9.9,1.98,1.35,3.25,1.35s2.35-.45,3.26-1.35c.9-.9,1.34-1.97,1.34-3.24v-36.75c0-3.44.73-5.96,2.19-7.56,1.47-1.61,3.76-2.45,6.91-2.52,1.95,0,3.63.15,5.05.45,1.42.3,2.69.45,3.81.45,1.58,0,2.71-.47,3.43-1.42.71-.94,1.07-1.86,1.07-2.78,0-2.27-1.2-3.71-3.59-4.31-1.05-.39-2.45-.69-4.22-.91-1.76-.23-3.6-.34-5.55-.34-5.91,0-10.43,1.59-13.58,4.77"/>
    </clipPath>
    <clipPath id="clippath-21">
      <path class="cls-23" d="M1373.16,344.13c-.88.94-1.32,2.04-1.32,3.31v50.07c0,1.34.46,2.47,1.37,3.36.91.9,1.98,1.35,3.18,1.35,1.37,0,2.49-.45,3.36-1.35.86-.9,1.3-2.03,1.3-3.36v-50.07c0-1.27-.46-2.37-1.37-3.31-.9-.93-2.01-1.4-3.29-1.4s-2.36.47-3.23,1.4M1372.4,324.04c-1.04,1.09-1.56,2.41-1.56,3.98s.52,2.83,1.56,3.99c1.05,1.16,2.37,1.74,3.93,1.74s2.9-.58,3.99-1.74c1.09-1.16,1.63-2.49,1.63-3.99s-.54-2.9-1.63-3.98c-1.09-1.09-2.41-1.63-3.99-1.63s-2.88.55-3.93,1.63"/>
    </clipPath>
    <clipPath id="clippath-22">
      <path class="cls-23" d="M1402.68,332.18c-.88.9-1.31,1.98-1.31,3.26v48.83c0,2.61.34,5.07,1.02,7.35.68,2.29,1.75,4.25,3.18,5.9,1.43,1.65,3.25,2.94,5.43,3.87,2.18.94,4.77,1.4,7.77,1.4,2.16,0,4.26-.16,6.28-.5,2.02-.34,3.78-.8,5.27-1.4,2.47-.83,3.71-2.29,3.71-4.37,0-1.42-.5-2.59-1.51-3.48-1.01-.9-2.45-1.12-4.33-.67-1.35.38-2.77.81-4.26,1.29-1.5.48-3.07.73-4.72.73-3.07,0-5.27-.91-6.62-2.75-1.35-1.84-2.02-4.18-2.02-7.02v-31.66h16.94c1.12,0,2.12-.39,2.97-1.18.86-.79,1.29-1.78,1.29-2.97s-.43-2.19-1.29-2.98c-.86-.79-1.85-1.17-2.97-1.17h-16.94v-9.2c0-1.28-.46-2.36-1.37-3.26-.91-.9-2.01-1.35-3.3-1.35s-2.37.44-3.23,1.35"/>
    </clipPath>
    <clipPath id="clippath-23">
      <path class="cls-23" d="M1487.69,343.85c-.74.67-1.3,1.54-1.68,2.58l-15.83,39.74h-.9l-17.4-40.07c-.46-.97-1-1.77-1.63-2.36-.64-.6-1.51-.9-2.64-.9-1.72,0-3.03.66-3.93,1.96-.9,1.31-1.01,2.83-.34,4.55l21.33,48.72c-1.49,4.49-3.44,8.1-5.83,10.83-2.4,2.73-4.8,4.77-7.19,6.12-.67.37-1.2.93-1.56,1.68-.38.75-.56,1.5-.56,2.24,0,1.28.44,2.3,1.34,3.09.91.78,1.96,1.17,3.15,1.17s2.54-.45,4.04-1.34c2.47-1.5,5.14-4.14,8.02-7.92,2.88-3.78,5.41-8.24,7.59-13.41l21.1-51.19c.67-1.57.56-3.05-.34-4.44-.89-1.38-2.21-2.07-3.93-2.07-1.12,0-2.07.34-2.81,1.01"/>
    </clipPath>
    <clipPath id="clippath-24">
      <path class="cls-23" d="M1499.26,388.7c-.9.94-1.35,2.04-1.35,3.32v6.06c0,1.28.46,2.38,1.35,3.31.9.94,1.98,1.4,3.25,1.4,1.35,0,2.45-.46,3.31-1.4.86-.93,1.29-2.03,1.29-3.31v-6.06c0-1.28-.44-2.38-1.34-3.32-.9-.93-1.99-1.4-3.26-1.4s-2.36.46-3.25,1.4"/>
    </clipPath>
  </defs>
  <g id="Layer_1-2" data-name="Layer 1">
    <g>
      <g class="cls-29">
        <rect class="cls-27" x="-14.25" y="-59.04" width="728.22" height="343.39" transform="translate(-14.25 62.46) rotate(-10)"/>
      </g>
      <g class="cls-15">
        <rect class="cls-8" x="725.74" y="-20.04" width="948.54" height="325.19" transform="translate(-6.52 210.55) rotate(-10)"/>
      </g>
      <g>
        <g>
          <path class="cls-23" d="M220.64,324.44l-26.27,32.77-26.16-32.77c-.9-1.12-2.1-1.68-3.6-1.68-1.28,0-2.38.45-3.32,1.34-.93.9-1.4,1.95-1.4,3.15l.28,1.63.85,1.51,25.7,31.43c.9,1.12,1.63,2.09,2.19,2.91.57.83.85,2.03.85,3.6v29.19c0,1.27.45,2.38,1.35,3.31.9.93,1.98,1.4,3.26,1.4,1.35,0,2.44-.47,3.31-1.4.86-.93,1.29-2.04,1.29-3.31v-29.19c0-1.57.29-2.75.85-3.54.56-.78,1.28-1.74,2.19-2.86l25.82-31.65c.74-.83,1.12-1.84,1.12-3.04,0-1.27-.47-2.36-1.41-3.26-.94-.9-2.03-1.35-3.31-1.35-1.42,0-2.62.6-3.59,1.8"/>
          <g class="cls-25">
            <rect class="cls-23" x="159.9" y="322.63" width="69.04" height="79.59"/>
          </g>
        </g>
        <g>
          <path class="cls-23" d="M245.65,390.21c-2.83-2.69-4.43-6.25-4.81-10.66-.06-.97-.13-2.09-.17-3.36-.04-1.28-.05-2.59-.05-3.93s.01-2.68.05-3.99c.04-1.31.11-2.45.17-3.43.3-4.19,1.84-7.63,4.65-10.33,2.8-2.69,6.54-4.04,11.24-4.04s8.45,1.35,11.24,4.04,4.35,6.14,4.64,10.33c.08.98.12,2.12.12,3.43v7.92c0,1.27-.04,2.39-.12,3.36-.36,4.42-1.97,7.97-4.82,10.66-2.83,2.7-6.52,4.04-11.06,4.04s-8.25-1.35-11.08-4.04M247.11,343.57c-2.97,1.09-5.57,2.6-7.82,4.55-2.24,1.94-4.03,4.28-5.33,7.01-1.32,2.73-2.08,5.75-2.31,9.04-.07,1.12-.13,2.38-.17,3.76-.03,1.39-.06,2.79-.06,4.21s.03,2.82.06,4.21c.04,1.39.1,2.64.17,3.76.23,3.29,1,6.32,2.31,9.09,1.3,2.77,3.09,5.17,5.33,7.19,2.25,2.02,4.86,3.6,7.82,4.72,2.96,1.12,6.17,1.68,9.63,1.68s6.67-.56,9.67-1.68c3-1.12,5.61-2.7,7.82-4.72,2.22-2.02,3.98-4.42,5.3-7.19,1.31-2.77,2.08-5.8,2.31-9.09.15-2.25.22-4.89.22-7.92s-.07-5.71-.22-8.03c-.22-3.29-1-6.3-2.31-9.04-1.32-2.73-3.08-5.07-5.3-7.01-2.21-1.95-4.82-3.46-7.82-4.55-2.99-1.08-6.22-1.63-9.67-1.63s-6.67.55-9.63,1.63"/>
          <g class="cls-19">
            <rect class="cls-23" x="231.41" y="341.95" width="50.63" height="60.84"/>
          </g>
        </g>
        <g>
          <path class="cls-23" d="M340.27,344.13c-.88.94-1.31,2.04-1.31,3.31v42.55c-1.65,1.04-3.73,2-6.26,2.86-2.54.86-5.6,1.29-9.18,1.29-4.7,0-8.36-1.25-11.01-3.76-2.65-2.51-3.97-5.97-3.97-10.39v-32.56c0-1.27-.46-2.37-1.37-3.31-.91-.93-2.01-1.4-3.29-1.4s-2.38.47-3.25,1.4c-.87.94-1.3,2.04-1.3,3.31v32.45c0,3.67.57,6.92,1.75,9.76,1.16,2.85,2.81,5.24,4.94,7.19,2.15,1.95,4.7,3.43,7.66,4.44,2.97,1.01,6.25,1.51,9.85,1.51,2.92,0,5.58-.24,7.98-.72,2.4-.5,4.56-1.07,6.47-1.75,1.91-.67,3.56-1.41,4.95-2.19,1.39-.79,2.5-1.48,3.32-2.08,1.28-.82,1.91-2.06,1.91-3.7v-44.91c0-1.27-.46-2.37-1.37-3.31-.9-.93-2-1.4-3.29-1.4s-2.36.47-3.23,1.4"/>
          <g class="cls-7">
            <rect class="cls-23" x="299.33" y="342.73" width="48.83" height="60.06"/>
          </g>
        </g>
        <g>
          <path class="cls-23" d="M372.52,346.72c-3.15,3.18-4.72,7.54-4.72,13.07v37.83c0,1.28.45,2.36,1.35,3.25.89.9,1.97,1.35,3.25,1.35s2.36-.45,3.27-1.35c.89-.9,1.33-1.97,1.33-3.24v-36.75c0-3.44.74-5.96,2.2-7.56,1.45-1.61,3.76-2.45,6.9-2.52,1.95,0,3.64.15,5.05.45,1.42.3,2.69.45,3.82.45,1.57,0,2.71-.47,3.41-1.42.71-.94,1.07-1.86,1.07-2.78,0-2.27-1.19-3.71-3.59-4.31-1.04-.39-2.45-.69-4.21-.91-1.75-.23-3.6-.34-5.55-.34-5.91,0-10.43,1.59-13.58,4.77"/>
          <g class="cls-16">
            <rect class="cls-23" x="367.8" y="341.95" width="31.65" height="60.28"/>
          </g>
        </g>
        <g>
          <path class="cls-23" d="M459.46,324.49c-3.86,1.61-7.22,3.82-10.1,6.62-2.88,2.81-5.22,6.12-7.02,9.94-1.79,3.81-2.85,7.93-3.14,12.35-.45,5.99-.45,12.05,0,18.19.29,4.42,1.32,8.53,3.09,12.35,1.77,3.81,4.08,7.13,6.97,9.93,2.89,2.81,6.28,5.02,10.19,6.62,3.89,1.61,8.08,2.41,12.59,2.41s8.73-.74,12.48-2.24c3.75-1.49,6.95-3.53,9.62-6.11,2.66-2.57,4.73-5.56,6.19-8.96,1.46-3.39,2.19-6.95,2.19-10.68v-7.4c0-2.09-.66-3.86-1.99-5.32-1.32-1.45-3.27-2.18-5.85-2.18h-17.42c-1.27,0-2.37.42-3.31,1.28-.94.85-1.4,1.91-1.4,3.16s.46,2.31,1.4,3.15c.94.86,2.04,1.28,3.31,1.28h16.06v6.96c0,2.62-.51,5.05-1.52,7.29-1.01,2.25-2.45,4.18-4.33,5.79-1.86,1.61-4.11,2.85-6.74,3.76-2.61.9-5.5,1.35-8.64,1.35s-6.3-.57-9.04-1.74c-2.73-1.16-5.14-2.76-7.23-4.77-2.1-2.02-3.78-4.44-5.05-7.23-1.28-2.81-2.06-5.85-2.36-9.15-.45-5.62-.45-11.38,0-17.29.29-3.29,1.08-6.34,2.36-9.15,1.28-2.81,2.94-5.22,5-7.23,2.05-2.02,4.47-3.62,7.23-4.78,2.77-1.15,5.8-1.73,9.09-1.73,4.65,0,8.67,1.14,12.07,3.42,3.41,2.28,6.08,5.37,8.03,9.26.36.67.9,1.25,1.62,1.74.71.49,1.52.74,2.42.74,1.27,0,2.35-.43,3.25-1.3.9-.86,1.35-1.92,1.35-3.2,0-.9-.15-1.65-.44-2.25-2.63-5.38-6.41-9.61-11.34-12.68-4.94-3.07-10.63-4.61-17.06-4.61-4.49,0-8.66.81-12.52,2.42"/>
          <g class="cls-2">
            <rect class="cls-23" x="438.75" y="322.07" width="63.76" height="80.83"/>
          </g>
        </g>
        <g>
          <path class="cls-23" d="M524.3,346.72c-3.15,3.18-4.72,7.54-4.72,13.07v37.83c0,1.28.44,2.36,1.35,3.25.9.9,1.98,1.35,3.25,1.35s2.36-.45,3.26-1.35c.9-.9,1.34-1.97,1.34-3.24v-36.75c0-3.44.74-5.96,2.19-7.56,1.46-1.61,3.76-2.45,6.9-2.52,1.96,0,3.64.15,5.05.45,1.42.3,2.7.45,3.82.45,1.57,0,2.71-.47,3.42-1.42.71-.94,1.07-1.86,1.07-2.78,0-2.27-1.19-3.71-3.59-4.31-1.05-.39-2.45-.69-4.21-.91-1.76-.23-3.6-.34-5.56-.34-5.91,0-10.43,1.59-13.57,4.77"/>
          <g class="cls-3">
            <rect class="cls-23" x="519.58" y="341.95" width="31.65" height="60.28"/>
          </g>
        </g>
        <g>
          <path class="cls-23" d="M574,390.21c-2.83-2.69-4.44-6.25-4.8-10.66-.08-.97-.14-2.09-.17-3.36-.05-1.28-.06-2.59-.06-3.93s0-2.68.06-3.99c.03-1.31.09-2.45.17-3.43.29-4.19,1.84-7.63,4.64-10.33,2.79-2.69,6.55-4.04,11.24-4.04s8.45,1.35,11.24,4.04c2.79,2.69,4.35,6.14,4.64,10.33.07.98.12,2.12.12,3.43v7.92c0,1.27-.05,2.39-.12,3.36-.37,4.42-1.97,7.97-4.81,10.66-2.84,2.7-6.53,4.04-11.08,4.04s-8.24-1.35-11.08-4.04M575.46,343.57c-2.96,1.09-5.57,2.6-7.82,4.55-2.25,1.94-4.03,4.28-5.34,7.01-1.31,2.73-2.08,5.75-2.31,9.04-.08,1.12-.13,2.38-.17,3.76-.04,1.39-.06,2.79-.06,4.21s.02,2.82.06,4.21c.04,1.39.09,2.64.17,3.76.22,3.29,1,6.32,2.31,9.09,1.31,2.77,3.09,5.17,5.34,7.19,2.25,2.02,4.87,3.6,7.82,4.72,2.96,1.12,6.17,1.68,9.62,1.68s6.68-.56,9.67-1.68c3-1.12,5.61-2.7,7.82-4.72,2.22-2.02,3.98-4.42,5.29-7.19,1.31-2.77,2.08-5.8,2.31-9.09.15-2.25.22-4.89.22-7.92s-.08-5.71-.22-8.03c-.23-3.29-1-6.3-2.31-9.04-1.31-2.73-3.07-5.07-5.29-7.01-2.21-1.95-4.82-3.46-7.82-4.55-2.99-1.08-6.22-1.63-9.67-1.63s-6.66.55-9.62,1.63"/>
          <g class="cls-18">
            <rect class="cls-23" x="559.77" y="341.95" width="50.64" height="60.84"/>
          </g>
        </g>
        <g>
          <path class="cls-23" d="M697.74,343.46c-.83.64-1.35,1.51-1.58,2.64l-12.23,47.03-.56.56-.56-.56-11.34-43.89c-.6-2.17-1.61-3.83-3.03-5-1.42-1.16-3.11-1.74-5.05-1.74s-3.55.57-5.05,1.74c-1.49,1.16-2.5,2.79-3.03,4.89l-11.34,44-.56.56-.56-.56-12.69-47.38c-.3-1.04-.82-1.85-1.56-2.41-.76-.56-1.62-.84-2.59-.84-1.56,0-2.76.65-3.58,1.96-.83,1.32-1.02,2.83-.56,4.54l13.02,47.15c.6,2.4,1.66,4.16,3.2,5.28,1.53,1.13,3.27,1.69,5.22,1.69s3.62-.58,5.05-1.75c1.42-1.16,2.43-2.94,3.03-5.33l11.45-42.88.56-.45.56.45,11.11,42.99c.6,2.4,1.65,4.16,3.15,5.28,1.5,1.13,3.22,1.69,5.17,1.69s3.65-.56,5.11-1.69c1.46-1.12,2.52-2.88,3.19-5.28l13.14-47.15c.44-1.65.27-3.14-.51-4.49-.79-1.35-2.01-2.02-3.65-2.02-1.13,0-2.1.32-2.92.95"/>
          <g class="cls-11">
            <rect class="cls-23" x="621.39" y="342.51" width="83.86" height="60.63"/>
          </g>
        </g>
        <g>
          <path class="cls-23" d="M719.81,332.18c-.87.9-1.3,1.98-1.3,3.26v48.83c0,2.61.34,5.07,1.02,7.35.68,2.29,1.74,4.25,3.18,5.9,1.44,1.65,3.25,2.94,5.44,3.87,2.18.94,4.77,1.4,7.76,1.4,2.17,0,4.26-.16,6.28-.5,2.02-.34,3.78-.8,5.29-1.4,2.47-.83,3.7-2.29,3.7-4.37,0-1.42-.5-2.59-1.51-3.48-1.02-.9-2.45-1.12-4.33-.67-1.33.38-2.76.81-4.26,1.29-1.49.48-3.06.73-4.71.73-3.07,0-5.28-.91-6.62-2.75-1.35-1.84-2.02-4.18-2.02-7.02v-31.66h16.95c1.12,0,2.12-.39,2.97-1.18.86-.79,1.29-1.78,1.29-2.97s-.43-2.19-1.29-2.98c-.86-.79-1.85-1.17-2.97-1.17h-16.95v-9.2c0-1.28-.46-2.36-1.37-3.26-.9-.9-2.01-1.35-3.29-1.35s-2.37.44-3.24,1.35"/>
          <g class="cls-12">
            <rect class="cls-23" x="718.51" y="330.84" width="32.67" height="71.95"/>
          </g>
        </g>
        <g>
          <path class="cls-23" d="M766.28,323.37c-.87.93-1.3,2.04-1.3,3.31v70.84c0,1.34.43,2.47,1.3,3.36.88.9,1.95,1.35,3.25,1.35s2.48-.45,3.35-1.35c.86-.9,1.3-2.03,1.3-3.36v-38.29c1.72-2.39,4.07-4.42,7.05-6.11,2.98-1.68,6.15-2.53,9.51-2.53,4.47,0,7.9,1.33,10.28,3.99,2.39,2.66,3.58,6.34,3.58,11.06v31.88c0,1.34.43,2.47,1.3,3.36.87.9,1.95,1.35,3.24,1.35s2.39-.45,3.29-1.35c.91-.9,1.37-2.03,1.37-3.36v-32.67c0-3.74-.55-7.05-1.63-9.93-1.09-2.88-2.58-5.28-4.49-7.19-1.91-1.91-4.23-3.35-6.96-4.33-2.73-.97-5.7-1.46-8.92-1.46-3.6,0-6.94.73-10.05,2.19-3.11,1.47-5.64,3.2-7.58,5.22v-22.68c0-1.27-.46-2.38-1.36-3.31-.91-.93-2.01-1.41-3.29-1.41s-2.37.48-3.25,1.41"/>
          <g class="cls-13">
            <rect class="cls-23" x="764.98" y="321.96" width="48.83" height="80.27"/>
          </g>
        </g>
        <g>
          <path class="cls-23" d="M831.88,388.7c-.9.94-1.35,2.04-1.35,3.32v6.06c0,1.28.46,2.38,1.35,3.31.89.94,1.98,1.4,3.25,1.4,1.35,0,2.45-.46,3.31-1.4.86-.93,1.29-2.03,1.29-3.31v-6.06c0-1.28-.45-2.38-1.35-3.32-.89-.93-1.98-1.4-3.25-1.4s-2.36.46-3.25,1.4"/>
          <g class="cls-20">
            <rect class="cls-23" x="830.53" y="387.3" width="9.2" height="15.49"/>
          </g>
        </g>
        <g>
          <path class="cls-23" d="M915.29,392.29c-2.77-1.16-5.19-2.76-7.25-4.77-2.05-2.02-3.74-4.44-5.05-7.23-1.31-2.81-2.12-5.85-2.42-9.15-.44-5.77-.44-11.57,0-17.41.3-3.29,1.11-6.32,2.42-9.09,1.31-2.77,2.99-5.17,5.05-7.19,2.06-2.02,4.48-3.62,7.25-4.78,2.77-1.15,5.76-1.73,8.97-1.73s6.24.58,9.04,1.73c2.81,1.16,5.26,2.76,7.36,4.78,2.08,2.02,3.79,4.42,5.1,7.19,1.31,2.76,2.11,5.8,2.41,9.09.6,5.84.6,11.64,0,17.41-.3,3.29-1.08,6.34-2.35,9.15-1.28,2.8-2.97,5.22-5.05,7.23-2.1,2.02-4.55,3.62-7.35,4.77-2.8,1.16-5.86,1.74-9.16,1.74s-6.2-.57-8.97-1.74M911.75,324.49c-3.86,1.61-7.24,3.82-10.16,6.62-2.92,2.81-5.29,6.12-7.07,9.94-1.79,3.81-2.85,7.93-3.14,12.35-.46,5.99-.46,12.05,0,18.19.29,4.42,1.35,8.53,3.14,12.35,1.79,3.81,4.16,7.13,7.07,9.93,2.92,2.81,6.3,5.02,10.16,6.62,3.86,1.61,8.03,2.41,12.51,2.41s8.7-.8,12.63-2.41c3.93-1.61,7.37-3.81,10.33-6.62,2.97-2.8,5.33-6.12,7.13-9.93,1.79-3.81,2.84-7.93,3.15-12.35.44-6.14.44-12.2,0-18.19-.31-4.34-1.35-8.42-3.15-12.23-1.79-3.82-4.16-7.15-7.13-10-2.96-2.84-6.39-5.06-10.33-6.67-3.93-1.61-8.14-2.42-12.63-2.42s-8.66.81-12.51,2.42"/>
          <g class="cls-26">
            <rect class="cls-23" x="890.93" y="322.07" width="67.02" height="80.83"/>
          </g>
        </g>
        <g>
          <path class="cls-23" d="M1015.72,344.13c-.88.94-1.3,2.04-1.3,3.31v42.55c-1.64,1.04-3.73,2-6.27,2.86s-5.59,1.29-9.18,1.29c-4.69,0-8.36-1.25-11.01-3.76-2.65-2.51-3.97-5.97-3.97-10.39v-32.56c0-1.27-.46-2.37-1.37-3.31-.9-.93-2.01-1.4-3.29-1.4s-2.38.47-3.25,1.4c-.87.94-1.3,2.04-1.3,3.31v32.45c0,3.67.57,6.92,1.74,9.76,1.17,2.85,2.81,5.24,4.96,7.19,2.13,1.95,4.68,3.43,7.65,4.44,2.97,1.01,6.24,1.51,9.84,1.51,2.92,0,5.59-.24,7.99-.72,2.4-.5,4.56-1.07,6.47-1.75,1.91-.67,3.56-1.41,4.95-2.19,1.4-.79,2.5-1.48,3.32-2.08,1.27-.82,1.91-2.06,1.91-3.7v-44.91c0-1.27-.46-2.37-1.37-3.31-.9-.93-2.01-1.4-3.29-1.4s-2.36.47-3.23,1.4"/>
          <g class="cls-21">
            <rect class="cls-23" x="974.79" y="342.73" width="48.83" height="60.06"/>
          </g>
        </g>
        <g>
          <path class="cls-23" d="M1047.98,346.72c-3.15,3.18-4.73,7.54-4.73,13.07v37.83c0,1.28.45,2.36,1.35,3.25.9.9,1.98,1.35,3.25,1.35s2.36-.45,3.26-1.35c.9-.9,1.34-1.97,1.34-3.24v-36.75c0-3.44.74-5.96,2.19-7.56,1.46-1.61,3.76-2.45,6.91-2.52,1.94,0,3.63.15,5.05.45,1.42.3,2.69.45,3.81.45,1.58,0,2.71-.47,3.42-1.42.71-.94,1.07-1.86,1.07-2.78,0-2.27-1.2-3.71-3.6-4.31-1.05-.39-2.45-.69-4.21-.91-1.76-.23-3.61-.34-5.55-.34-5.92,0-10.44,1.59-13.58,4.77"/>
          <g class="cls-5">
            <rect class="cls-23" x="1043.26" y="341.95" width="31.67" height="60.28"/>
          </g>
        </g>
        <g>
          <path class="cls-23" d="M1127.23,331.96h20.67c5.68,0,9.86,1.44,12.51,4.32,2.65,2.89,3.98,6.72,3.98,11.51s-1.31,8.41-3.93,11.34c-2.63,2.92-7,4.38-13.13,4.38h-20.11v-31.55ZM1125.66,323.08c-2.47,0-4.36.74-5.66,2.19-1.31,1.46-1.96,3.24-1.96,5.33v66.91c0,1.27.44,2.38,1.35,3.31.9.93,1.98,1.4,3.25,1.4s2.36-.47,3.26-1.4c.9-.93,1.34-2.04,1.34-3.31v-25.15h20.21c3.82,0,7.33-.54,10.55-1.63,3.22-1.09,6.01-2.69,8.36-4.82,2.36-2.14,4.19-4.72,5.5-7.75,1.31-3.04,1.97-6.53,1.97-10.49s-.68-7.37-2.03-10.45c-1.35-3.06-3.18-5.64-5.5-7.75-2.32-2.09-5.03-3.69-8.14-4.77-3.11-1.09-6.38-1.63-9.82-1.63h-22.68Z"/>
          <g class="cls-24">
            <rect class="cls-23" x="1118.03" y="323.08" width="55.79" height="79.15"/>
          </g>
        </g>
        <g>
          <path class="cls-23" d="M1193.36,346.72c-3.15,3.18-4.72,7.54-4.72,13.07v37.83c0,1.28.44,2.36,1.35,3.25.9.9,1.97,1.35,3.25,1.35s2.36-.45,3.27-1.35c.89-.9,1.33-1.97,1.33-3.24v-36.75c0-3.44.74-5.96,2.19-7.56,1.46-1.61,3.76-2.45,6.91-2.52,1.94,0,3.63.15,5.05.45,1.42.3,2.69.45,3.81.45,1.58,0,2.71-.47,3.42-1.42.71-.94,1.07-1.86,1.07-2.78,0-2.27-1.2-3.71-3.59-4.31-1.04-.39-2.45-.69-4.21-.91-1.76-.23-3.61-.34-5.55-.34-5.91,0-10.43,1.59-13.58,4.77"/>
          <g class="cls-4">
            <rect class="cls-23" x="1188.64" y="341.95" width="31.65" height="60.28"/>
          </g>
        </g>
        <g>
          <path class="cls-23" d="M1233.62,344.13c-.87.94-1.3,2.04-1.3,3.31v50.07c0,1.34.46,2.47,1.35,3.36.92.9,1.98,1.35,3.19,1.35,1.36,0,2.49-.45,3.36-1.35.87-.9,1.3-2.03,1.3-3.36v-50.07c0-1.27-.46-2.37-1.37-3.31-.9-.93-2-1.4-3.29-1.4s-2.37.47-3.24,1.4M1232.87,324.04c-1.04,1.09-1.57,2.41-1.57,3.98s.53,2.83,1.57,3.99c1.04,1.16,2.36,1.74,3.93,1.74s2.9-.58,3.99-1.74c1.08-1.16,1.63-2.49,1.63-3.99s-.55-2.9-1.63-3.98c-1.09-1.09-2.41-1.63-3.99-1.63s-2.88.55-3.93,1.63"/>
          <g class="cls-6">
            <rect class="cls-23" x="1231.3" y="322.41" width="11.11" height="79.82"/>
          </g>
        </g>
        <g>
          <path class="cls-23" d="M1274.38,390.21c-2.83-2.69-4.44-6.25-4.8-10.66-.08-.97-.14-2.09-.17-3.36-.04-1.28-.06-2.59-.06-3.93s.01-2.68.06-3.99c.03-1.31.09-2.45.17-3.43.29-4.19,1.84-7.63,4.64-10.33,2.79-2.69,6.55-4.04,11.24-4.04s8.45,1.35,11.24,4.04c2.79,2.69,4.35,6.14,4.64,10.33.08.98.12,2.12.12,3.43v7.92c0,1.27-.04,2.39-.12,3.36-.36,4.42-1.97,7.97-4.81,10.66-2.84,2.7-6.53,4.04-11.07,4.04s-8.24-1.35-11.08-4.04M1275.85,343.57c-2.97,1.09-5.58,2.6-7.83,4.55-2.24,1.94-4.03,4.28-5.33,7.01-1.32,2.73-2.08,5.75-2.31,9.04-.08,1.12-.13,2.38-.17,3.76-.04,1.39-.06,2.79-.06,4.21s.02,2.82.06,4.21c.04,1.39.09,2.64.17,3.76.23,3.29,1,6.32,2.31,9.09,1.3,2.77,3.09,5.17,5.33,7.19,2.25,2.02,4.87,3.6,7.83,4.72,2.95,1.12,6.16,1.68,9.62,1.68s6.67-.56,9.67-1.68c3.01-1.12,5.61-2.7,7.82-4.72,2.22-2.02,3.98-4.42,5.29-7.19,1.32-2.77,2.08-5.8,2.31-9.09.15-2.25.22-4.89.22-7.92s-.08-5.71-.22-8.03c-.23-3.29-1-6.3-2.31-9.04-1.31-2.73-3.07-5.07-5.29-7.01-2.21-1.95-4.81-3.46-7.82-4.55-2.99-1.08-6.22-1.63-9.67-1.63s-6.67.55-9.62,1.63"/>
          <g class="cls-22">
            <rect class="cls-23" x="1260.14" y="341.95" width="50.64" height="60.84"/>
          </g>
        </g>
        <g>
          <path class="cls-23" d="M1332.9,346.72c-3.15,3.18-4.72,7.54-4.72,13.07v37.83c0,1.28.44,2.36,1.35,3.25.9.9,1.98,1.35,3.25,1.35s2.35-.45,3.26-1.35c.9-.9,1.34-1.97,1.34-3.24v-36.75c0-3.44.73-5.96,2.19-7.56,1.47-1.61,3.76-2.45,6.91-2.52,1.95,0,3.63.15,5.05.45,1.42.3,2.69.45,3.81.45,1.58,0,2.71-.47,3.43-1.42.71-.94,1.07-1.86,1.07-2.78,0-2.27-1.2-3.71-3.59-4.31-1.05-.39-2.45-.69-4.22-.91-1.76-.23-3.6-.34-5.55-.34-5.91,0-10.43,1.59-13.58,4.77"/>
          <g class="cls-17">
            <rect class="cls-23" x="1328.18" y="341.95" width="31.66" height="60.28"/>
          </g>
        </g>
        <g>
          <path class="cls-23" d="M1373.16,344.13c-.88.94-1.32,2.04-1.32,3.31v50.07c0,1.34.46,2.47,1.37,3.36.91.9,1.98,1.35,3.18,1.35,1.37,0,2.49-.45,3.36-1.35.86-.9,1.3-2.03,1.3-3.36v-50.07c0-1.27-.46-2.37-1.37-3.31-.9-.93-2.01-1.4-3.29-1.4s-2.36.47-3.23,1.4M1372.4,324.04c-1.04,1.09-1.56,2.41-1.56,3.98s.52,2.83,1.56,3.99c1.05,1.16,2.37,1.74,3.93,1.74s2.9-.58,3.99-1.74c1.09-1.16,1.63-2.49,1.63-3.99s-.54-2.9-1.63-3.98c-1.09-1.09-2.41-1.63-3.99-1.63s-2.88.55-3.93,1.63"/>
          <g class="cls-1">
            <rect class="cls-23" x="1370.84" y="322.41" width="11.11" height="79.82"/>
          </g>
        </g>
        <g>
          <path class="cls-23" d="M1402.68,332.18c-.88.9-1.31,1.98-1.31,3.26v48.83c0,2.61.34,5.07,1.02,7.35.68,2.29,1.75,4.25,3.18,5.9,1.43,1.65,3.25,2.94,5.43,3.87,2.18.94,4.77,1.4,7.77,1.4,2.16,0,4.26-.16,6.28-.5,2.02-.34,3.78-.8,5.27-1.4,2.47-.83,3.71-2.29,3.71-4.37,0-1.42-.5-2.59-1.51-3.48-1.01-.9-2.45-1.12-4.33-.67-1.35.38-2.77.81-4.26,1.29-1.5.48-3.07.73-4.72.73-3.07,0-5.27-.91-6.62-2.75-1.35-1.84-2.02-4.18-2.02-7.02v-31.66h16.94c1.12,0,2.12-.39,2.97-1.18.86-.79,1.29-1.78,1.29-2.97s-.43-2.19-1.29-2.98c-.86-.79-1.85-1.17-2.97-1.17h-16.94v-9.2c0-1.28-.46-2.36-1.37-3.26-.91-.9-2.01-1.35-3.3-1.35s-2.37.44-3.23,1.35"/>
          <g class="cls-9">
            <rect class="cls-23" x="1401.37" y="330.84" width="32.67" height="71.95"/>
          </g>
        </g>
        <g>
          <path class="cls-23" d="M1487.69,343.85c-.74.67-1.3,1.54-1.68,2.58l-15.83,39.74h-.9l-17.4-40.07c-.46-.97-1-1.77-1.63-2.36-.64-.6-1.51-.9-2.64-.9-1.72,0-3.03.66-3.93,1.96-.9,1.31-1.01,2.83-.34,4.55l21.33,48.72c-1.49,4.49-3.44,8.1-5.83,10.83-2.4,2.73-4.8,4.77-7.19,6.12-.67.37-1.2.93-1.56,1.68-.38.75-.56,1.5-.56,2.24,0,1.28.44,2.3,1.34,3.09.91.78,1.96,1.17,3.15,1.17s2.54-.45,4.04-1.34c2.47-1.5,5.14-4.14,8.02-7.92,2.88-3.78,5.41-8.24,7.59-13.41l21.1-51.19c.67-1.57.56-3.05-.34-4.44-.89-1.38-2.21-2.07-3.93-2.07-1.12,0-2.07.34-2.81,1.01"/>
          <g class="cls-10">
            <rect class="cls-23" x="1442.68" y="342.84" width="52.75" height="80.37"/>
          </g>
        </g>
        <g>
          <path class="cls-23" d="M1499.26,388.7c-.9.94-1.35,2.04-1.35,3.32v6.06c0,1.28.46,2.38,1.35,3.31.9.94,1.98,1.4,3.25,1.4,1.35,0,2.45-.46,3.31-1.4.86-.93,1.29-2.03,1.29-3.31v-6.06c0-1.28-.44-2.38-1.34-3.32-.9-.93-1.99-1.4-3.26-1.4s-2.36.46-3.25,1.4"/>
          <g class="cls-28">
            <rect class="cls-23" x="1497.9" y="387.3" width="9.2" height="15.49"/>
          </g>
        </g>
      </g>
    </g>
  </g>
</svg>